<svg data-v-423bf9ae="" xmlns="http://www.w3.org/2000/svg" viewBox="0 0 352 90" class="iconLeftSlogan"><!----><!----><!----><g data-v-423bf9ae="" id="0d714f52-e6d6-49b9-a78a-87087bab581d" fill="#ffb10a" transform="matrix(4.597701082226675,0,0,4.597701082226675,104.71264085452238,-11.632183844910784)"><path d="M7.32 12.67L1.15 12.67L1.15 3.04L2.45 3.04L2.45 11.61L7.32 11.61L7.32 12.67ZM14.95 9.24L9.67 9.24L9.67 9.24Q9.67 10.51 10.20 11.20L10.20 11.20L10.20 11.20Q10.73 11.89 11.74 11.89L11.74 11.89L11.74 11.89Q12.54 11.89 13.02 11.57L13.02 11.57L13.02 11.57Q13.50 11.25 13.67 10.75L13.67 10.75L14.75 11.06L14.75 11.06Q14.09 12.81 11.74 12.81L11.74 12.81L11.74 12.81Q10.10 12.81 9.24 11.83L9.24 11.83L9.24 11.83Q8.38 10.86 8.38 8.93L8.38 8.93L8.38 8.93Q8.38 7.10 9.24 6.12L9.24 6.12L9.24 6.12Q10.10 5.14 11.69 5.14L11.69 5.14L11.69 5.14Q14.95 5.14 14.95 9.07L14.95 9.07L14.95 9.24ZM9.69 8.29L13.68 8.29L13.68 8.29Q13.58 7.12 13.08 6.59L13.08 6.59L13.08 6.59Q12.59 6.05 11.67 6.05L11.67 6.05L11.67 6.05Q10.77 6.05 10.25 6.65L10.25 6.65L10.25 6.65Q9.73 7.25 9.69 8.29L9.69 8.29ZM18.40 12.81L18.40 12.81L18.40 12.81Q17.29 12.81 16.73 12.22L16.73 12.22L16.73 12.22Q16.17 11.63 16.17 10.61L16.17 10.61L16.17 10.61Q16.17 9.46 16.92 8.85L16.92 8.85L16.92 8.85Q17.68 8.23 19.36 8.19L19.36 8.19L21.02 8.16L21.02 7.76L21.02 7.76Q21.02 6.86 20.64 6.47L20.64 6.47L20.64 6.47Q20.25 6.08 19.43 6.08L19.43 6.08L19.43 6.08Q18.61 6.08 18.23 6.36L18.23 6.36L18.23 6.36Q17.86 6.64 17.78 7.25L17.78 7.25L16.50 7.14L16.50 7.14Q16.81 5.14 19.46 5.14L19.46 5.14L19.46 5.14Q20.86 5.14 21.56 5.78L21.56 5.78L21.56 5.78Q22.26 6.42 22.26 7.63L22.26 7.63L22.26 10.81L22.26 10.81Q22.26 11.36 22.41 11.64L22.41 11.64L22.41 11.64Q22.55 11.92 22.96 11.92L22.96 11.92L22.96 11.92Q23.13 11.92 23.36 11.87L23.36 11.87L23.36 12.63L23.36 12.63Q22.89 12.74 22.41 12.74L22.41 12.74L22.41 12.74Q21.72 12.74 21.41 12.38L21.41 12.38L21.41 12.38Q21.10 12.02 21.06 11.26L21.06 11.26L21.02 11.26L21.02 11.26Q20.55 12.11 19.92 12.46L19.92 12.46L19.92 12.46Q19.30 12.81 18.40 12.81ZM18.68 11.89L18.68 11.89L18.68 11.89Q19.36 11.89 19.89 11.58L19.89 11.58L19.89 11.58Q20.41 11.27 20.72 10.74L20.72 10.74L20.72 10.74Q21.02 10.20 21.02 9.63L21.02 9.63L21.02 9.02L19.67 9.05L19.67 9.05Q18.81 9.06 18.36 9.23L18.36 9.23L18.36 9.23Q17.91 9.39 17.67 9.73L17.67 9.73L17.67 9.73Q17.43 10.08 17.43 10.63L17.43 10.63L17.43 10.63Q17.43 11.23 17.76 11.56L17.76 11.56L17.76 11.56Q18.08 11.89 18.68 11.89ZM25.56 12.67L24.33 12.67L24.33 7L24.33 7Q24.33 6.22 24.29 5.28L24.29 5.28L25.45 5.28L25.45 5.28Q25.50 6.54 25.50 6.79L25.50 6.79L25.53 6.79L25.53 6.79Q25.83 5.84 26.21 5.49L26.21 5.49L26.21 5.49Q26.59 5.14 27.29 5.14L27.29 5.14L27.29 5.14Q27.54 5.14 27.79 5.21L27.79 5.21L27.79 6.34L27.79 6.34Q27.54 6.27 27.13 6.27L27.13 6.27L27.13 6.27Q26.37 6.27 25.96 6.93L25.96 6.93L25.96 6.93Q25.56 7.59 25.56 8.82L25.56 8.82L25.56 12.67ZM34.90 12.67L33.66 12.67L33.66 7.98L33.66 7.98Q33.66 7.25 33.52 6.85L33.52 6.85L33.52 6.85Q33.37 6.45 33.06 6.27L33.06 6.27L33.06 6.27Q32.74 6.09 32.14 6.09L32.14 6.09L32.14 6.09Q31.25 6.09 30.73 6.70L30.73 6.70L30.73 6.70Q30.22 7.31 30.22 8.39L30.22 8.39L30.22 12.67L28.99 12.67L28.99 6.86L28.99 6.86Q28.99 5.56 28.95 5.28L28.95 5.28L30.11 5.28L30.11 5.28Q30.12 5.31 30.13 5.46L30.13 5.46L30.13 5.46Q30.13 5.61 30.14 5.81L30.14 5.81L30.14 5.81Q30.15 6.00 30.17 6.54L30.17 6.54L30.19 6.54L30.19 6.54Q30.61 5.78 31.17 5.46L31.17 5.46L31.17 5.46Q31.73 5.14 32.55 5.14L32.55 5.14L32.55 5.14Q33.77 5.14 34.33 5.75L34.33 5.75L34.33 5.75Q34.90 6.35 34.90 7.75L34.90 7.75L34.90 12.67ZM37.97 3.71L36.74 3.71L36.74 2.53L37.97 2.53L37.97 3.71ZM37.97 12.67L36.74 12.67L36.74 5.28L37.97 5.28L37.97 12.67ZM45.79 12.67L44.56 12.67L44.56 7.98L44.56 7.98Q44.56 7.25 44.41 6.85L44.41 6.85L44.41 6.85Q44.27 6.45 43.96 6.27L43.96 6.27L43.96 6.27Q43.64 6.09 43.03 6.09L43.03 6.09L43.03 6.09Q42.14 6.09 41.63 6.70L41.63 6.70L41.63 6.70Q41.12 7.31 41.12 8.39L41.12 8.39L41.12 12.67L39.89 12.67L39.89 6.86L39.89 6.86Q39.89 5.56 39.85 5.28L39.85 5.28L41.01 5.28L41.01 5.28Q41.02 5.31 41.02 5.46L41.02 5.46L41.02 5.46Q41.03 5.61 41.04 5.81L41.04 5.81L41.04 5.81Q41.05 6.00 41.06 6.54L41.06 6.54L41.08 6.54L41.08 6.54Q41.51 5.78 42.06 5.46L42.06 5.46L42.06 5.46Q42.62 5.14 43.45 5.14L43.45 5.14L43.45 5.14Q44.67 5.14 45.23 5.75L45.23 5.75L45.23 5.75Q45.79 6.35 45.79 7.75L45.79 7.75L45.79 12.67ZM50.45 15.58L50.45 15.58L50.45 15.58Q49.24 15.58 48.52 15.10L48.52 15.10L48.52 15.10Q47.80 14.63 47.60 13.75L47.60 13.75L48.84 13.58L48.84 13.58Q48.96 14.09 49.38 14.37L49.38 14.37L49.38 14.37Q49.80 14.64 50.48 14.64L50.48 14.64L50.48 14.64Q52.32 14.64 52.32 12.49L52.32 12.49L52.32 11.30L52.31 11.30L52.31 11.30Q51.96 12.01 51.35 12.37L51.35 12.37L51.35 12.37Q50.74 12.73 49.93 12.73L49.93 12.73L49.93 12.73Q48.57 12.73 47.93 11.83L47.93 11.83L47.93 11.83Q47.29 10.92 47.29 8.99L47.29 8.99L47.29 8.99Q47.29 7.03 47.98 6.09L47.98 6.09L47.98 6.09Q48.67 5.16 50.07 5.16L50.07 5.16L50.07 5.16Q50.85 5.16 51.43 5.52L51.43 5.52L51.43 5.52Q52.01 5.88 52.32 6.54L52.32 6.54L52.34 6.54L52.34 6.54Q52.34 6.34 52.36 5.83L52.36 5.83L52.36 5.83Q52.39 5.33 52.42 5.28L52.42 5.28L53.59 5.28L53.59 5.28Q53.55 5.65 53.55 6.81L53.55 6.81L53.55 12.46L53.55 12.46Q53.55 15.58 50.45 15.58ZM52.32 8.98L52.32 8.98L52.32 8.98Q52.32 8.07 52.08 7.42L52.08 7.42L52.08 7.42Q51.83 6.77 51.38 6.42L51.38 6.42L51.38 6.42Q50.93 6.08 50.37 6.08L50.37 6.08L50.37 6.08Q49.42 6.08 48.99 6.76L48.99 6.76L48.99 6.76Q48.56 7.44 48.56 8.98L48.56 8.98L48.56 8.98Q48.56 10.49 48.97 11.16L48.97 11.16L48.97 11.16Q49.37 11.82 50.35 11.82L50.35 11.82L50.35 11.82Q50.93 11.82 51.38 11.48L51.38 11.48L51.38 11.48Q51.83 11.14 52.08 10.50L52.08 10.50L52.08 10.50Q52.32 9.86 52.32 8.98Z"></path></g><!----><g data-v-423bf9ae="" id="85a5927d-3007-4a02-b904-872a32c4ccd8" transform="matrix(2.8125,0,0,2.8125,0,0)" stroke="none" fill="#ffb10a"><path d="M16 32c8.837 0 16-7.163 16-16S24.837 0 16 0 0 7.163 0 16s7.163 16 16 16zM14.817 6.421h2v8.886h8.887v2H14.817V6.421zm-5.959.437h2v14.283h14.283v2H8.858V6.858z"></path></g><!----><g data-v-423bf9ae="" id="e28eadbe-a715-4edf-8bad-073a8f54d613" fill="#ffb10a" transform="matrix(0.4762654407934766,0,0,0.4762654407934766,109.73805394188133,58.99984179309961)"><path d="M5.11 10.57C2.86 10.57 1.60 8.93 1.60 6.85C1.60 4.76 2.86 3.12 5.11 3.12C6.64 3.12 7.64 3.85 8.12 4.98L9.23 4.98C8.64 3.29 7.13 2.10 5.03 2.10C2.24 2.10 0.55 4.21 0.55 6.85C0.55 9.48 2.24 11.59 5.03 11.59C7.13 11.59 8.64 10.40 9.23 8.71L8.12 8.71C7.64 9.84 6.64 10.57 5.11 10.57ZM21.84 2.10C19.03 2.10 17.14 4.21 17.14 6.85C17.14 9.48 19.03 11.59 21.84 11.59C24.65 11.59 26.54 9.48 26.54 6.85C26.54 4.21 24.65 2.10 21.84 2.10ZM21.84 10.57C19.59 10.57 18.19 8.93 18.19 6.85C18.19 4.76 19.59 3.12 21.84 3.12C24.09 3.12 25.49 4.76 25.49 6.85C25.49 8.93 24.09 10.57 21.84 10.57ZM42.17 2.21L42.17 10.01L36.44 2.21L35.22 2.21L35.22 11.48L36.27 11.48L36.27 3.65L42 11.48L43.22 11.48L43.22 2.21ZM58.95 2.21L55.75 10.29L52.54 2.21L51.39 2.21L55.15 11.48L56.35 11.48L60.10 2.21ZM75.10 3.22L75.10 2.21L68.28 2.21L68.28 11.48L75.10 11.48L75.10 10.47L69.33 10.47L69.33 7.35L74.48 7.35L74.48 6.33L69.33 6.33L69.33 3.22ZM90.73 2.21L90.73 10.01L85.01 2.21L83.79 2.21L83.79 11.48L84.84 11.48L84.84 3.65L90.57 11.48L91.78 11.48L91.78 2.21ZM102.10 2.21L101.05 2.21L101.05 11.48L102.10 11.48ZM118.19 3.22L118.19 2.21L111.37 2.21L111.37 11.48L118.19 11.48L118.19 10.47L112.42 10.47L112.42 7.35L117.57 7.35L117.57 6.33L112.42 6.33L112.42 3.22ZM133.83 2.21L133.83 10.01L128.10 2.21L126.88 2.21L126.88 11.48L127.93 11.48L127.93 3.65L133.66 11.48L134.88 11.48L134.88 2.21ZM150.72 2.21L143.21 2.21L143.21 3.22L146.44 3.22L146.44 11.48L147.49 11.48L147.49 3.22L150.72 3.22ZM176.83 2.21L173.57 6.61L170.25 2.21L169.04 2.21L169.04 11.48L170.09 11.48L170.09 3.81L173.57 8.22L177.00 3.81L177.00 11.48L178.05 11.48L178.05 2.21ZM191.44 2.10C188.62 2.10 186.73 4.21 186.73 6.85C186.73 9.48 188.62 11.59 191.44 11.59C194.25 11.59 196.14 9.48 196.14 6.85C196.14 4.21 194.25 2.10 191.44 2.10ZM191.44 10.57C189.18 10.57 187.78 8.93 187.78 6.85C187.78 4.76 189.18 3.12 191.44 3.12C193.69 3.12 195.09 4.76 195.09 6.85C195.09 8.93 193.69 10.57 191.44 10.57ZM208.73 2.21L204.82 2.21L204.82 11.48L208.73 11.48C210.94 11.48 212.98 9.74 212.98 6.85C212.98 3.95 210.94 2.21 208.73 2.21ZM208.68 10.49L205.87 10.49L205.87 3.21L208.68 3.21C210.66 3.21 211.93 4.86 211.93 6.85C211.93 8.83 210.66 10.49 208.68 10.49ZM228.49 3.22L228.49 2.21L221.68 2.21L221.68 11.48L228.49 11.48L228.49 10.47L222.73 10.47L222.73 7.35L227.88 7.35L227.88 6.33L222.73 6.33L222.73 3.22ZM251.29 2.10C248.47 2.10 246.58 4.21 246.58 6.85C246.58 9.48 248.47 11.59 251.29 11.59C254.10 11.59 255.99 9.48 255.99 6.85C255.99 4.21 254.10 2.10 251.29 2.10ZM251.29 10.57C249.03 10.57 247.63 8.93 247.63 6.85C247.63 4.76 249.03 3.12 251.29 3.12C253.54 3.12 254.94 4.76 254.94 6.85C254.94 8.93 253.54 10.57 251.29 10.57ZM271.36 3.22L271.36 2.21L264.67 2.21L264.67 11.48L265.72 11.48L265.72 7.46L270.75 7.46L270.75 6.44L265.72 6.44L265.72 3.22ZM289.81 2.21L289.81 11.48L295.92 11.48L295.92 10.47L290.86 10.47L290.86 2.21ZM311.09 3.22L311.09 2.21L304.28 2.21L304.28 11.48L311.09 11.48L311.09 10.47L305.33 10.47L305.33 7.35L310.48 7.35L310.48 6.33L305.33 6.33L305.33 3.22ZM323.95 2.21L322.63 2.21L318.70 11.48L319.86 11.48L320.99 8.79L325.58 8.79L326.72 11.48L327.88 11.48ZM321.40 7.83L323.29 3.30L325.18 7.83ZM337.11 7.92L340.33 7.92L342.57 11.48L343.81 11.48L341.38 7.74C342.41 7.50 343.62 6.90 343.62 5.11C343.62 3.35 342.40 2.21 340.49 2.21L336.06 2.21L336.06 11.48L337.11 11.48ZM337.11 3.21L340.37 3.21C341.68 3.21 342.57 3.93 342.57 5.11C342.57 6.55 341.31 6.93 340.31 6.93L337.11 6.93ZM359.37 2.21L359.37 10.01L353.64 2.21L352.42 2.21L352.42 11.48L353.47 11.48L353.47 3.65L359.20 11.48L360.42 11.48L360.42 2.21ZM370.73 2.21L369.68 2.21L369.68 11.48L370.73 11.48ZM386.95 2.21L386.95 10.01L381.22 2.21L380.00 2.21L380.00 11.48L381.05 11.48L381.05 3.65L386.78 11.48L388.00 11.48L388.00 2.21ZM401.24 2.10C398.45 2.10 396.68 4.21 396.68 6.85C396.68 9.48 398.38 11.59 401.21 11.59C402.89 11.59 403.98 10.74 404.57 9.84L404.57 11.48L405.54 11.48L405.54 6.55L401.18 6.55L401.18 7.50L404.57 7.50C404.57 9.44 402.98 10.57 401.30 10.57C399.04 10.57 397.73 8.93 397.73 6.85C397.73 4.76 399.07 3.12 401.32 3.12C402.74 3.12 403.75 3.74 404.31 4.73L405.45 4.73C404.77 3.18 403.23 2.10 401.24 2.10Z"></path></g></svg>